<svg xmlns="http://www.w3.org/2000/svg" width="1024" height="1024"><path d="M490.464 38.002c-39.966 2.101-80.901 9.336-118.099 20.87l-10.134 3.143-3.121 16.242c-5.552 28.899-7.194 44.761-7.812 75.458-1.086 53.996 5.319 96.291 22.082 145.805 6.409 18.934 9.739 27.48 10.705 27.48.469 0 4.011-2.043 7.871-4.54 17.598-11.384 40.941-21.44 62.544-26.944 20.833-5.307 34.015-6.848 58.229-6.808l21.228.036.624-3.622c.343-1.992 2.391-11.722 4.552-21.622 18.894-86.593 47.795-150.086 83.49-183.421 7.465-6.972 23.233-18.264 27.31-19.558 4.986-1.582 1.868-2.887-20.433-8.545-43.938-11.147-95.071-16.287-139.036-13.974m220.547 59.065c-27.84 18.926-46.937 34.919-70.515 59.052-30.814 31.54-55.136 65.606-74.883 104.881-8.132 16.175-14.187 29.766-13.539 30.393.234.226 6.651 2.018 14.259 3.981 43.757 11.292 81.632 34.898 112.914 70.376 2.061 2.337 4.048 4.25 4.414 4.25.367 0 7.456-4.438 15.753-9.863 64.261-42.012 119.852-66.506 167.086-73.619 19.741-2.973 46.135-1.615 60.815 3.13 2.648.856 4.986 1.384 5.195 1.175 1.482-1.482-29.517-49.997-43.073-67.413-32.058-41.183-68.759-75.784-109.937-103.648C760.127 106.653 728.297 88 725.301 88c-.524 0-6.954 4.08-14.29 9.067m-431.567 2.587c-75.919 42.742-141.815 110.21-183.86 188.248l-6.682 12.403 5.684 8.597c17.62 26.653 34.757 47.626 57.327 70.156 27.263 27.214 50.463 45.342 83.087 64.923 11.542 6.927 34.998 18.999 47.5 24.445 9.295 4.05 8.238 4.914 11.532-9.426 3.446-15.008 8.569-29.347 16.006-44.803 12.135-25.22 26.102-44.422 46.893-64.467l11.911-11.484-5.409-8.078c-55.039-82.209-83.614-158.254-78.532-208.995.643-6.42 2.033-15.031 3.089-19.135 1.056-4.104 1.802-7.579 1.659-7.722-.143-.144-4.735 2.259-10.205 5.338M828 352.064c-44.81 3.915-93.386 15.613-130.272 31.37l-3.772 1.611 3.946 5.811c23.135 34.068 36.973 85.763 34.613 129.305l-.686 12.662 5.835 1.159c96.601 19.195 163.524 46.945 201.194 83.424 9.724 9.417 15.73 16.925 22.353 27.946 2.778 4.62 4.959 7.333 5.249 6.527 5.483-15.221 14.426-57.091 17.49-81.879 7.675-62.108 2.508-128.739-14.538-187.5-2.553-8.8-4.86-16.762-5.128-17.693-.332-1.153-2.658-2.187-7.299-3.242-10.815-2.46-34.298-6.349-48.985-8.113-15.96-1.916-64.343-2.756-80-1.388M56.151 386.75c-21.577 81.639-22.152 164.074-1.696 243.517 2.44 9.478 5.474 20.374 6.741 24.214l2.304 6.98 14 2.732c80.74 15.755 161.983 9.108 237.25-19.411 7.288-2.761 13.25-5.494 13.25-6.073 0-.578-.666-1.788-1.48-2.687-3.693-4.08-16.802-28.238-21.424-39.48-11.838-28.79-16.147-50.102-16.842-83.292-.464-22.198-.575-23.25-2.432-23.25-3.233 0-41.309-8.67-57.322-13.052-67.599-18.501-115.62-42.31-145.401-72.092-8.85-8.85-15.856-17.649-19.977-25.092-1.442-2.604-2.902-4.742-3.244-4.75-.342-.008-2.019 5.274-3.727 11.736m671.448 172.5c-2.923 13.84-10.571 35.333-17.669 49.655-11.751 23.707-26.661 43.953-46.058 62.539l-11.055 10.594 10.925 16.731c30.451 46.636 50.673 86.333 63.283 124.231 12.928 38.856 15.945 72.249 8.984 99.466-1.107 4.325-1.812 8.064-1.569 8.308 1.45 1.45 44.635-25.699 62.995-39.604 56.135-42.511 105.183-99.765 134.279-156.743l4.633-9.073-10.125-14.927c-42.831-63.144-97.538-111.522-163.453-144.543C749.2 559.087 731.395 551 729.998 551c-.362 0-1.441 3.712-2.399 8.25" fill="undefined" fill-rule="evenodd"/></svg>