<?xml version="1.0" encoding="utf-8"?>
<!-- Generator: Adobe Illustrator 22.1.0, SVG Export Plug-In . SVG Version: 6.00 Build 0)  -->
<svg version="1.1" id="Layer_1" xmlns="http://www.w3.org/2000/svg" xmlns:xlink="http://www.w3.org/1999/xlink" x="0px" y="0px"
	 viewBox="0 0 1000 1000" style="enable-background:new 0 0 1000 1000;" xml:space="preserve">
<style type="text/css">
	.st0{fill:#6DC8BF;}
	.st1{fill:#F68B1F;}
</style>
<path class="st0" d="M990,1000H10c-5.5,0-10-4.5-10-10V10C0,4.5,4.5,0,10,0h980c5.5,0,10,4.5,10,10v980
	C1000,995.5,995.5,1000,990,1000z"/>
<g>
	<path class="st1" d="M408.1,455.5v191c-25.5,0-43.1,4.8-52.6,14.3c-9.5,9.5-15.6,28.4-18.2,56.5c-8.4,93.4-44.6,159.3-108.6,197.8
		c-33.9,20-82.1,30.1-144.5,30.1H59v-192h8.2c29.1,0,49.9-6.1,62.3-18.2c12.4-12.1,19.6-33.4,21.6-63.8
		c2.6-49.5,7.2-84.2,13.8-104.2c6.6-20,20.1-39.9,40.5-59.6c35.6-34.6,84.8-51.9,147.9-51.9H408.1z"/>
	<path class="st1" d="M628.7,270.3v185.2h81.4V647h-81.4c0,38.5,6.1,65,18.2,79.5c12.1,14.5,34.3,21.8,66.7,21.8v190.5
		c-9.4,0.3-16.3,0.5-20.8,0.5c-41.1,0-79.8-9.5-116.1-28.6c-36.4-19.1-65.5-44.9-87.5-77.6c-27.8-41.7-41.7-97-41.7-165.8V270.3
		H628.7z"/>
</g>
</svg>
